<svg width="7544" height="2616" viewBox="0 0 7544 2616" fill="none" xmlns="http://www.w3.org/2000/svg">
<rect width="7544" height="2616" rx="700" fill="white"/>
<path fill-rule="evenodd" clip-rule="evenodd" d="M4351.47 1057.17C4314.98 1062.47 4281.6 1072.66 4254.06 1086.88C4064.82 1184.63 4067.91 1502.19 4258.99 1593.48C4339.21 1631.81 4457.68 1630.76 4532.18 1591.07L4548.23 1582.51L4581.01 1614.87L4613.78 1647.21L4650.5 1610.45L4687.23 1573.67L4655.42 1541.71L4623.61 1509.75L4632.15 1495.67C4708.76 1369.42 4672.61 1176.45 4558.18 1100.89C4506 1066.44 4417.06 1047.62 4351.47 1057.17ZM3024.49 1340.75V1612.67H3077.56H3130.63L3131.18 1418.73L3131.73 1224.78L3215.29 1339.1L3298.85 1453.42L3311.08 1454.07L3323.31 1454.72L3409.5 1339.76L3495.71 1224.81L3496.26 1418.74L3496.81 1612.67H3548.8H3600.78V1340.75V1068.83H3541.62H3482.47L3398.11 1184.8C3322.88 1288.2 3313.44 1300.36 3310.93 1296.93C3309.37 1294.82 3271.41 1242.63 3226.57 1180.96L3145.05 1068.83H3084.76H3024.49V1340.75ZM5892.94 1340.75V1612.67H5940.6H5988.26V1340.75V1068.83H5940.6H5892.94V1340.75ZM6608.97 1126.32C6585.13 1129.06 6565.4 1131.39 6565.09 1131.48C6564.79 1131.58 6564.55 1153.6 6564.55 1180.42V1229.17H6528.81H6493.06V1271.42V1313.67H6528.66H6564.28L6565.05 1413.88C6565.91 1526.44 6566.72 1532.72 6584.21 1561.78C6615.31 1613.47 6690.42 1631.69 6767.1 1606.18C6784.11 1600.51 6784.02 1604.87 6768.13 1557.18L6755.04 1517.93L6740.51 1523.4C6707.33 1535.87 6678.57 1528.89 6666.5 1505.46L6660.96 1494.71L6660.33 1404.19L6659.69 1313.67H6712.87H6766.04V1271.42V1229.17H6712.96H6659.88V1175C6659.88 1124.77 6659.61 1120.86 6656.09 1121.08C6654.01 1121.22 6632.8 1123.57 6608.97 1126.32ZM4443.14 1155.52C4614.74 1196.63 4610.62 1477.71 4437.81 1519.81C4296.73 1554.2 4183.19 1423.06 4226.03 1275.21C4253.56 1180.22 4342.22 1131.34 4443.14 1155.52ZM4893.1 1220.58C4792.33 1229.19 4729.02 1292.37 4718.33 1394.96C4707.86 1495.33 4752.47 1580.15 4831.28 1609.73C4907.06 1638.17 4994.43 1621.19 5030.82 1570.95C5038.3 1560.63 5038.48 1560.99 5040.37 1589.38L5041.92 1612.67H5087.21H5132.5V1420.92V1229.17H5087.23C5035.16 1229.17 5039.36 1227.11 5039.3 1252.63C5039.26 1275.09 5037.7 1276.79 5027.91 1265.08C5016.34 1251.25 4990.24 1234.61 4970.15 1228.26C4945.32 1220.41 4922.09 1218.1 4893.1 1220.58ZM6223.16 1220.65C6117.31 1228.9 6052.57 1299.94 6049.5 1411.17C6046.84 1508.32 6079.78 1571.27 6150.95 1604.99C6225.97 1640.54 6332.63 1621.45 6364.73 1566.73L6368.48 1560.32L6370.65 1585.95L6372.82 1611.58L6418.86 1612.17L6464.89 1612.75V1420.96V1229.17H6418.61H6372.32L6370.94 1239.22C6370.19 1244.75 6369.57 1255.45 6369.57 1263.01V1276.75L6353.86 1260.83C6322.65 1229.22 6280.32 1216.2 6223.16 1220.65ZM3832.6 1223.7C3626.62 1258.16 3611.43 1562.36 3813.1 1614.09C3931.39 1644.43 4041.61 1580.28 4064.89 1467.52C4095.26 1320.47 3979.63 1199.09 3832.6 1223.7ZM5177.99 1227.89C5177.99 1228.79 5300.11 1579.5 5308.38 1602.38L5312.9 1614.83H5368.61H5424.32L5445.13 1554.71C5456.58 1521.65 5472.38 1470.21 5480.23 1440.42C5488.08 1410.63 5495.09 1384.3 5495.81 1381.92C5496.61 1379.25 5503.54 1401.7 5513.88 1440.42C5523.22 1475.46 5539.19 1527.69 5549.97 1558.5L5569.28 1613.75H5625.48H5681.67L5748.24 1422C5784.84 1316.54 5814.82 1229.5 5814.87 1228.59C5814.91 1227.67 5790.86 1227.18 5761.43 1227.51L5707.92 1228.08L5665.56 1367.14C5642.27 1443.62 5622.65 1506.74 5621.96 1507.41C5621.28 1508.07 5602.3 1445.26 5579.79 1367.81L5538.86 1227L5496.53 1227.01L5454.22 1227.02L5416.43 1358.64C5395.65 1431.02 5377.13 1494.8 5375.26 1500.36L5371.89 1510.45L5328.75 1368.73L5285.6 1227H5231.8C5202.2 1227 5177.99 1227.4 5177.99 1227.89ZM6809.98 1231.88C6810.58 1233.37 6843.97 1315.51 6884.18 1414.42C6924.38 1513.33 6958.18 1596.85 6959.3 1600.02C6961.03 1604.99 6956.43 1617.22 6926.51 1687.07C6907.36 1731.77 6891.69 1769.39 6891.69 1770.67C6891.69 1772.27 6908.16 1772.99 6944.23 1772.95L6996.77 1772.9L7112.02 1504.82C7175.41 1357.38 7227.92 1235.03 7228.72 1232.92C7230.08 1229.31 7227.04 1229.12 7176.35 1229.67L7122.55 1230.25L7087.54 1314.19C7068.29 1360.35 7044.38 1420.06 7034.4 1446.86C7024.43 1473.68 7015.76 1495.62 7015.13 1495.63C7014.5 1495.66 7009.26 1481.29 7003.49 1463.71C6994.52 1436.4 6927.45 1243.98 6923.07 1232.96C6921.69 1229.48 6916.86 1229.17 6865.23 1229.17C6821.03 1229.17 6809.14 1229.75 6809.98 1231.88ZM4954.58 1309.63C5001.51 1319.63 5035 1365.81 5035 1420.52C5035 1568.88 4822.51 1575.53 4814.7 1427.42C4810.37 1345.22 4873.24 1292.28 4954.58 1309.63ZM6289.41 1310.8C6345.06 1325.97 6377.8 1389.21 6362.68 1452.33C6335.62 1565.29 6171.5 1561.17 6147.51 1446.92C6128.66 1357.14 6201.86 1286.92 6289.41 1310.8ZM3894.43 1312.67C3991.07 1337.68 3998.6 1493.86 3904.73 1526.15C3833.39 1550.7 3767.77 1500.3 3767.63 1420.83C3767.49 1346.36 3827.34 1295.32 3894.43 1312.67Z" fill="black"/>
<path d="M1766.74 979.718L1712.82 1005.67L1712 364.476L1552.67 257.418L1584.54 212L1766.74 335.278V979.718Z" fill="#66BB6A"/>
<path d="M1959.57 885.617L1904.83 911.57V448.824L1825.57 391.24L1857.44 349.066L1959.57 421.249V885.617Z" fill="#66BB6A"/>
<path d="M1445.63 2115.51L1444 234.709L592.609 495.053V2281.78L1091.02 1833.27L1432.56 2126.87L1445.63 2115.51Z" fill="#388E3C"/>
<path d="M1614.77 1963.04V1051.43L2273.33 733.642V1903.02L1967.74 1645.92L1614.77 1963.04Z" fill="#4CAF50"/>
<path d="M544.402 2400.19L506 2358.01L1091.02 1833.27L1433.38 2126.06L1968.56 1645.11L2426.94 2031.98V881.109L2340.33 817.037L2372.2 774.863L2481.68 855.156V2079.02L2626.31 2200.67V1010.06L2551.95 950.859L2585.45 908.684L2681.05 984.922V2247.71L2812.6 2358.01L2775.01 2401L1968.56 1722.16L1213.59 2400.19L1175.18 2358.01L1389.26 2164.18L1091.02 1908.7L544.402 2400.19Z" fill="#66BB6A"/>
<path d="M1071.41 2099.3H1009.32V2160.13H1071.41V2099.3Z" fill="#66BB6A"/>
<path d="M1160.48 2179.59H1098.38V2240.42H1160.48V2179.59Z" fill="#66BB6A"/>
<path d="M1160.48 2098.48H1098.38V2159.31H1160.48V2098.48Z" fill="#66BB6A"/>
<path d="M1072.23 2179.59H1010.13V2240.42H1072.23V2179.59Z" fill="#66BB6A"/>
<path d="M1973.47 2072.53H1899.11V2146.33H1973.47V2072.53Z" fill="#66BB6A"/>
<path d="M2081.32 2072.53H2006.97V2146.33H2081.32V2072.53Z" fill="#66BB6A"/>
<path d="M1973.47 2168.23H1899.11V2242.04H1973.47V2168.23Z" fill="#66BB6A"/>
<path d="M2081.32 2168.23H2006.97V2242.04H2081.32V2168.23Z" fill="#66BB6A"/>
</svg>
